# xmcd
# Track frame offsets:
# 150
# 18702
# 37601
# 54750
# 72436
# 87293
# 104160
# 129312
# 143515
#
# Disc length: 2184 seconds
# Revision: 0
# Processed by: cddbd v1.5.1PL0 Copyright (c) Steve Scherf et al.
# Submitted via: VisiTrax 2.9.10.228 - For more info visit www.synapsa.com
#
DISCID=70088609
DTITLE=Various Artist - Hits Monthly Nashville  PHN0504
DYEAR=1900
DGENRE=Karaoke
TTITLE0=Twain, Shania - Don't
TTITLE1=Lonestar - Class Reunion
TTITLE2=Elam, Katrina - I Want A Cowboy
TTITLE3=Rimes, Leann - You Take Me Home
TTITLE4=Messina, Jo Dee - My Give A Damn's Busted
TTITLE5=Bentley, Dierks - Lot Of Leaving Left To Do
TTITLE6=Chesney, Kenny - Anything But Mine
TTITLE7=Bates, Jeff - Long, Slow Kisses
TTITLE8=Rascal Flatts - Skin
EXTD=
EXTT0=
EXTT1=
EXTT2=
EXTT3=
EXTT4=
EXTT5=
EXTT6=
EXTT7=
EXTT8=
PLAYORDER=
